PathFileType	4	(X/Y/Z)	C:\Users\Biomechanik\SynologyDrive\AlexP\Athlete_03\Athlete_3_25_03_31\Walking_02\marker_experimental.trc
DataRate	CameraRate	NumFrames	NumMarkers	Units	OrigDataRate	OrigDataStartFrame	OrigNumFrames
200.000000	200.000000	4	53	mm	200.000000	431	493
Frame#	Time	GLAB			RFHD			LFHD			C7			T6			SPINMOL			SPINM2			SPINM3			T12			BELTOL			BELT2			BELT3			SACROL			SACR2			SACR3			LTHOL			LTH2			LTH3			LSHAOL			LSHA2			LSHA3			LHEE			LTOE			LM5			RTHOL			RTH2			RSHAOL			RSHA2			RSHA3			RHEE			RTOE			RM5			STRN			XIPH			LACR			LUAOL			LUA2			LUA3			LLAOL			LLA2			LLA3			LWRR			LWRU			RACR			RUAOL			RUA2			RUA3			RLAOL			RLA2			RLA3			RWRR			RWRU			RTH3			
		X1	Y1	Z1	X2	Y2	Z2	X3	Y3	Z3	X4	Y4	Z4	X5	Y5	Z5	X6	Y6	Z6	X7	Y7	Z7	X8	Y8	Z8	X9	Y9	Z9	X10	Y10	Z10	X11	Y11	Z11	X12	Y12	Z12	X13	Y13	Z13	X14	Y14	Z14	X15	Y15	Z15	X16	Y16	Z16	X17	Y17	Z17	X18	Y18	Z18	X19	Y19	Z19	X20	Y20	Z20	X21	Y21	Z21	X22	Y22	Z22	X23	Y23	Z23	X24	Y24	Z24	X25	Y25	Z25	X26	Y26	Z26	X27	Y27	Z27	X28	Y28	Z28	X29	Y29	Z29	X30	Y30	Z30	X31	Y31	Z31	X32	Y32	Z32	X33	Y33	Z33	X34	Y34	Z34	X35	Y35	Z35	X36	Y36	Z36	X37	Y37	Z37	X38	Y38	Z38	X39	Y39	Z39	X40	Y40	Z40	X41	Y41	Z41	X42	Y42	Z42	X43	Y43	Z43	X44	Y44	Z44	X45	Y45	Z45	X46	Y46	Z46	X47	Y47	Z47	X48	Y48	Z48	X49	Y49	Z49	X50	Y50	Z50	X51	Y51	Z51	X52	Y52	Z52	X53	Y53	Z53	

432	2.155	2309.293701171875	1584.503173828125	228.8568420410161	2259.630126953125	1618.252319335938	290.6927490234379	2274.659912109375	1613.986206054688	153.1708374023442	2073.65673828125	1439.745361328125	204.2506713867191	2023.151123046875	1266.633178710938	198.9613189697269	2018.894409179688	1225.972778320313	177.9329833984379	2010.724487304688	1218.646362304688	227.3101806640629	2026.526611328125	1162.671264648438	195.3926391601566	2055.981201171875	1099.589721679688	202.1966094970707	2018.354614257812	1065.894287109375	187.6571197509769	2017.196899414062	1063.952880859375	237.5810852050785	2015.048461914062	1003.466369628906	207.6370239257816	2033.546020507812	958.0266723632814	193.8986206054691	2037.7919921875	954.7130737304689	244.8652191162113	2022.047119140625	896.8427734375001	216.6814422607426	2117.635009765625	682.1240844726564	41.14684677124063	2061.532958984375	632.8293457031251	70.26121520996132	2109.167236328125	623.7520141601564	57.66291427612344	2062.200927734375	328.5267028808595	69.39527130126991	2005.924560546875	273.9536743164064	81.62403869628943	2055.924072265625	267.8013610839845	79.86285400390663	1958.962280273438	87.38355255126964	177.9091644287113	2172.989013671875	41.04692840576185	179.3761596679691	2123.67333984375	28.72183227539076	78.46659088134804	2203.112060546875	683.4364013671876	423.8647460937504	2278.97216796875	657.8505249023439	434.2430419921879	2234.14892578125	370.5299072265626	409.0502929687504	2254.5947265625	295.3449096679689	403.9077453613285	2212.19287109375	316.5522460937501	388.2441711425785	2152.23779296875	119.3210906982423	261.4583740234379	2350.70947265625	65.28920745849624	308.4806823730473	2280.287109375	49.26029968261733	393.7415771484379	2246.35986328125	1348.469116210938	222.0841522216801	2270.0673828125	1206.724975585938	223.6684417724614	2164.701416015625	1406.395385742188	38.83880996704141	2187.3779296875	1256.397338867188	-66.13804626464804	2185.549560546875	1193.879272460938	-86.2928695678707	2228.708251953125	1205.465454101563	-61.75365447998006	2279.7724609375	1007.917114257813	-113.2590942382808	2268.3046875	931.5172119140626	-97.74749755859334	2309.419677734375	955.1057739257814	-108.4408721923824	2371.594482421875	871.3107910156251	-102.9094085693355	2402.897216796875	893.0888061523439	-34.31268310546831	2140.00439453125	1399.948974609375	382.7119750976566	2104.900390625	1252.570190429688	480.6989135742191	2125.3955078125	1190.909301757813	493.3773803710941	2074.933349609375	1195.609252929688	495.7278137207035	2095.267822265625	981.1269531250001	541.0559082031253	2141.455810546875	929.4625244140626	582.9005737304691	2109.048828125	917.5447998046876	550.1927490234378	2139.159423828125	838.2843017578126	577.5522460937503	2193.818115234375	820.3575439453126	520.6348266601567	2237.6728515625	632.4261474609376	419.8681640625004	
433	2.16	2315.89990234375	1583.404663085938	229.559951782227	2266.3408203125	1617.22119140625	291.4205322265629	2281.4169921875	1613.154174804688	153.9191436767582	2079.9755859375	1439.225830078125	204.6445617675785	2029.398315429688	1266.099853515625	199.5193023681644	2025.065063476562	1225.42919921875	178.5312652587894	2017.02392578125	1218.1484375	227.9344940185551	2032.749633789062	1162.138061523438	196.0240020751957	2062.15771484375	1099.081787109375	202.8880310058597	2024.399536132812	1065.531616210938	188.6074523925785	2023.506225585938	1063.543579101563	238.5262908935551	2021.1591796875	1003.068176269531	208.5208435058597	2039.6787109375	957.8812255859376	194.7907104492191	2044.129760742188	954.4133300781251	245.7280578613285	2028.061157226562	896.6874389648439	217.4816131591801	2121.712158203125	682.1931152343751	41.17391967773477	2065.164794921875	633.2955932617189	70.34872436523476	2112.72900390625	623.8567504882814	57.69461441040078	2063.74853515625	328.8707580566407	69.45018005371132	2007.151977539062	274.6183166503907	81.71840667724646	2057.12939453125	268.170379638672	79.94836425781288	1959.240112304688	88.10329437255871	177.9675903320316	2173.053955078125	40.95720672607435	179.3483734130863	2123.737060546875	28.73392105102552	78.47392272949257	2210.62890625	682.7535400390626	423.5476074218754	2286.6650390625	657.1521606445314	433.4005737304691	2244.944091796875	367.5342102050782	408.223297119141	2267.640625	292.9430236816407	404.0255126953129	2224.78271484375	312.7711791992189	387.826568603516	2171.58203125	112.7077713012697	262.768463134766	2371.537353515625	65.35808563232436	310.3289489746098	2301.46875	47.38574218750014	395.5711669921879	2252.67626953125	1347.911499023438	222.3521423339848	2276.358154296875	1206.156982421875	223.7363586425786	2170.838134765625	1406.054077148438	39.23553466796915	2193.94677734375	1256.400512695313	-65.90662384033163	2192.496337890625	1193.932983398438	-86.2507324218746	2235.459716796875	1205.644409179688	-61.5794105529781	2288.383544921875	1008.69873046875	-113.1582794189449	2277.775634765625	932.1767578125001	-97.61299896240193	2318.70654296875	956.2709960937501	-108.1394882202144	2381.893310546875	873.2767944335939	-102.212020874023	2412.7099609375	895.7029418945314	-33.59474182128862	2146.32568359375	1399.401489257813	383.0747070312504	2110.480712890625	1252.176879882813	480.9813232421879	2130.64111328125	1190.394775390625	493.7367553710941	2080.201416015625	1195.315307617188	495.8334655761723	2099.017822265625	980.9434814453126	541.3185424804691	2144.51904296875	928.9581909179689	583.5128173828128	2112.26513671875	917.2789306640626	550.5549926757816	2141.458984375	837.6921997070314	578.1503295898441	2196.681884765625	819.4186401367189	521.8668823242192	2245.328125	631.9718017578126	419.165191650391	
434	2.165	2322.5302734375	1582.231689453125	230.2883453369145	2273.072265625	1616.113403320313	292.175689697266	2288.18896484375	1612.246215820313	154.6953582763676	2086.309326171875	1438.63720703125	205.0676879882816	2035.6572265625	1265.499877929688	200.1177978515629	2031.248413085938	1224.819091796875	179.1696472167972	2023.337646484375	1217.58544921875	228.5990447998051	2038.980712890625	1161.53662109375	196.6930694580082	2068.339111328125	1098.504028320313	203.6126403808597	2030.463989257812	1065.101684570313	189.5566406250004	2029.831420898438	1063.064453125	239.4833984375004	2027.286010742188	1002.605224609375	209.4022064208988	2045.833374023438	957.6842041015626	195.6768035888676	2050.47412109375	954.0630493164064	246.5865478515629	2034.061279296875	896.4877929687501	218.2752685546879	2125.8134765625	682.2064208984376	41.20531845092813	2068.828369140625	633.7054443359376	70.46166229248085	2116.318115234375	623.9089965820314	57.74504089355508	2065.33984375	329.1833801269532	69.5138473510746	2008.416381835938	275.2582092285157	81.81674957275428	2058.369384765625	268.5084228515626	80.04727172851601	1959.518432617188	88.81052398681652	178.0377807617191	2173.115966796875	40.86719894409193	179.3229370117191	2123.80517578125	28.7436561584474	78.48526000976601	2218.0302734375	681.9598999023439	423.1405639648441	2294.18603515625	656.2597656250001	432.5542602539066	2255.631103515625	364.5878295898439	407.3695068359379	2280.537841796875	290.653533935547	404.1850585937504	2237.30078125	309.0899658203126	387.3986816406254	2191.0322265625	106.3545989990236	264.1397399902348	2392.22314453125	65.68610382080092	312.2610778808598	2322.57861328125	45.86711120605483	397.4895629882817	2259.014404296875	1347.283935546875	222.6344451904301	2282.6611328125	1205.514526367188	223.8228149414067	2176.97119140625	1405.63720703125	39.65486145019571	2200.492431640625	1256.325927734375	-65.64729309081991	2199.422607421875	1193.911254882813	-86.18126678466757	2242.183349609375	1205.743286132813	-61.37468338012654	2296.9541015625	1009.424682617188	-113.0259399414058	2287.2109375	932.7914428710939	-97.45969390869098	2327.9443359375	957.3868408203126	-107.8126602172847	2392.11865234375	875.1984252929689	-101.4912948608394	2422.43798828125	898.2577514648439	-32.84744262695268	2152.683837890625	1398.79345703125	383.4597778320316	2116.11669921875	1251.731567382813	481.2936401367191	2135.942626953125	1189.829467773438	494.118560791016	2085.5283203125	1194.972778320313	495.9816284179691	2102.85986328125	980.7039794921876	541.6052856445316	2147.683837890625	928.4210205078126	584.1224975585941	2115.5244140625	916.9868774414064	550.9345092773441	2143.883544921875	837.0736083984376	578.7571411132816	2199.612548828125	818.4477539062501	523.0661621093755	2252.82666015625	631.3402099609376	418.3708496093754	
435	2.17	2329.1845703125	1580.986938476563	231.0424957275395	2279.824462890625	1614.931030273438	292.9588012695316	2294.976806640625	1611.265502929688	155.499649047852	2092.659423828125	1437.980834960938	205.521377563477	2041.929321289062	1264.834716796875	200.7559356689457	2037.445678710938	1224.14404296875	179.8467559814457	2029.6669921875	1216.958862304688	229.3022766113285	2045.220947265625	1160.868286132813	197.3979797363285	2074.5263671875	1097.857299804688	204.3687133789066	2036.550170898438	1064.6005859375	190.5005493164066	2036.173461914062	1062.512451171875	240.4488372802738	2033.431274414062	1002.074584960938	210.2780151367191	2052.010009765625	957.4324340820314	196.5545806884769	2056.8271484375	953.6596069335939	247.4379882812504	2040.051025390625	896.2408447265626	219.0612792968754	2129.935302734375	682.1672973632814	41.24511337280313	2072.5224609375	634.0625610351564	70.60437011718788	2119.932373046875	623.9119873046876	57.81612014770547	2066.971923828125	329.4671630859376	69.58643341064491	2009.71630859375	275.875213623047	81.92012786865271	2059.641845703125	268.8180541992189	80.15961456298866	1959.798217773438	89.50771331787121	178.1194152832035	2173.1748046875	40.77841949462904	179.2998657226566	2123.87744140625	28.75108337402357	78.50060272216835	2225.3193359375	681.0599975585939	422.6511230468754	2301.5283203125	655.1786499023439	431.7065124511723	2266.216796875	361.696502685547	406.4981689453129	2293.291015625	288.4821166992189	404.381500244141	2249.745361328125	305.5166320800782	386.9709472656254	2210.558837890625	100.2834091186525	265.5693054199223	2412.74560546875	66.28961181640639	314.2594909667973	2343.598388671875	44.72128677368178	399.4834594726567	2265.37548828125	1346.588134765625	222.931289672852	2288.97705078125	1204.798706054688	223.9277648925786	2183.1015625	1405.145751953125	40.09691619873087	2207.01611328125	1256.172973632813	-65.36072540283162	2206.327880859375	1193.813110351563	-86.08298492431599	2248.88330078125	1205.762573242188	-61.14069366455037	2305.480712890625	1010.092407226563	-112.8613281249996	2296.609130859375	933.3593750000001	-97.28523254394489	2337.1298828125	958.4514160156251	-107.4596176147457	2402.269287109375	877.0729370117189	-100.7485198974605	2432.080078125	900.7489013671876	-32.07253646850541	2159.080810546875	1398.124877929688	383.8680419921879	2121.809814453125	1251.231689453125	481.6369323730473	2141.3017578125	1189.212280273438	494.5232849121098	2090.914794921875	1194.580322265625	496.1729125976566	2106.794189453125	980.4067993164064	541.9162597656253	2150.952392578125	927.8469848632814	584.7315673828128	2118.833251953125	916.6626586914064	551.3312377929691	2146.438720703125	836.4268188476564	579.3747558593753	2202.6123046875	817.4422607421876	524.2311401367192	2260.15869140625	630.5263061523439	417.4884033203129	
